<mxfile host="app.diagrams.net" modified="2023-10-17T05:03:31.744Z" agent="Mozilla/5.0 (Windows NT 10.0; Win64; x64; rv:109.0) Gecko/20100101 Firefox/118.0" etag="4pepOG5uUSEo5jC195_v" version="22.0.4" type="github">
  <diagram name="Page-1" id="7k1Ib5IS07NSYuew8yuU">
    <mxGraphModel dx="880" dy="470" grid="1" gridSize="10" guides="1" tooltips="1" connect="1" arrows="1" fold="1" page="1" pageScale="1" pageWidth="850" pageHeight="1100" math="0" shadow="0">
      <root>
        <mxCell id="0" />
        <mxCell id="1" parent="0" />
        <mxCell id="sC_-spnG6xQRnpVWGKMj-1" value="" style="edgeStyle=orthogonalEdgeStyle;rounded=0;orthogonalLoop=1;jettySize=auto;html=1;" edge="1" parent="1" target="sC_-spnG6xQRnpVWGKMj-3">
          <mxGeometry relative="1" as="geometry">
            <mxPoint x="418" y="60" as="sourcePoint" />
          </mxGeometry>
        </mxCell>
        <mxCell id="sC_-spnG6xQRnpVWGKMj-2" value="" style="edgeStyle=orthogonalEdgeStyle;rounded=0;orthogonalLoop=1;jettySize=auto;html=1;" edge="1" parent="1" source="sC_-spnG6xQRnpVWGKMj-3" target="sC_-spnG6xQRnpVWGKMj-5">
          <mxGeometry relative="1" as="geometry" />
        </mxCell>
        <mxCell id="sC_-spnG6xQRnpVWGKMj-3" value="&lt;div&gt;LA&lt;/div&gt;&lt;div&gt;a&lt;/div&gt;&lt;div&gt;t&lt;br&gt;&lt;/div&gt;" style="shape=parallelogram;perimeter=parallelogramPerimeter;whiteSpace=wrap;html=1;fixedSize=1;" vertex="1" parent="1">
          <mxGeometry x="357.5" y="90" width="120" height="60" as="geometry" />
        </mxCell>
        <mxCell id="sC_-spnG6xQRnpVWGKMj-4" value="" style="edgeStyle=orthogonalEdgeStyle;rounded=0;orthogonalLoop=1;jettySize=auto;html=1;" edge="1" parent="1" source="sC_-spnG6xQRnpVWGKMj-5" target="sC_-spnG6xQRnpVWGKMj-7">
          <mxGeometry relative="1" as="geometry" />
        </mxCell>
        <mxCell id="sC_-spnG6xQRnpVWGKMj-5" value="LA=1\2xaxt" style="rhombus;whiteSpace=wrap;html=1;" vertex="1" parent="1">
          <mxGeometry x="366.25" y="180" width="102.5" height="90" as="geometry" />
        </mxCell>
        <mxCell id="sC_-spnG6xQRnpVWGKMj-6" value="" style="edgeStyle=orthogonalEdgeStyle;rounded=0;orthogonalLoop=1;jettySize=auto;html=1;" edge="1" parent="1" source="sC_-spnG6xQRnpVWGKMj-7" target="sC_-spnG6xQRnpVWGKMj-9">
          <mxGeometry relative="1" as="geometry" />
        </mxCell>
        <mxCell id="sC_-spnG6xQRnpVWGKMj-7" value="1\2xaxt" style="rounded=1;whiteSpace=wrap;html=1;" vertex="1" parent="1">
          <mxGeometry x="357.5" y="310" width="120" height="60" as="geometry" />
        </mxCell>
        <mxCell id="sC_-spnG6xQRnpVWGKMj-8" value="" style="edgeStyle=orthogonalEdgeStyle;rounded=0;orthogonalLoop=1;jettySize=auto;html=1;" edge="1" parent="1" source="sC_-spnG6xQRnpVWGKMj-9" target="sC_-spnG6xQRnpVWGKMj-10">
          <mxGeometry relative="1" as="geometry" />
        </mxCell>
        <mxCell id="sC_-spnG6xQRnpVWGKMj-9" value="LA" style="shape=parallelogram;perimeter=parallelogramPerimeter;whiteSpace=wrap;html=1;fixedSize=1;rounded=1;" vertex="1" parent="1">
          <mxGeometry x="357.5" y="410" width="120" height="60" as="geometry" />
        </mxCell>
        <mxCell id="sC_-spnG6xQRnpVWGKMj-10" value="END" style="strokeWidth=2;html=1;shape=mxgraph.flowchart.terminator;whiteSpace=wrap;" vertex="1" parent="1">
          <mxGeometry x="367.5" y="510" width="100" height="30" as="geometry" />
        </mxCell>
        <mxCell id="sC_-spnG6xQRnpVWGKMj-11" value="START" style="strokeWidth=2;html=1;shape=mxgraph.flowchart.start_1;whiteSpace=wrap;" vertex="1" parent="1">
          <mxGeometry x="375" y="10" width="100" height="60" as="geometry" />
        </mxCell>
      </root>
    </mxGraphModel>
  </diagram>
</mxfile>
